{"title":"Yo-kai Watch the Movie 2 The Great King Enma and the Five Tales","uid":15976415,"size":1622306062,"categoryP":"video","categoryS":"movies","magnet":"?xt=urn:btih:f62209302377846d6409871c1d1b455cb8c869e4&amp;dn=Yo-kai+Watch+the+Movie+2+The+Great+King+Enma+and+the+Five+Tales&amp;tr=udp%3A%2F%2Ftracker.leechers-paradise.org%3A6969&amp;tr=udp%3A%2F%2Fzer0day.ch%3A1337&amp;tr=udp%3A%2F%2Fopen.demonii.com%3A1337&amp;tr=udp%3A%2F%2Ftracker.coppersurfer.tk%3A6969&amp;tr=udp%3A%2F%2Fexodus.desync.com%3A6969","seeders":2,"leechers":0,"uploader":null,"files":1,"time":1475848108,"description":"Remux of another uploader's original release for hardsubbing and/or &quot;fixing&quot; purposes.\r\n[brandnewscooby] Youkai Watch Movie 2: Yo-kai Watch: Enma Daiō to Itsutsu no Monogatari da Nyan! (EngSub)\r\nfrom multiple mpeg2 ts files into single mp4 file with hardcoded sub.\r\n\r\nFormat : MPEG-4\r\nFormat profile : Base Media / Version 2\r\nCodec ID : mp42\r\nFile size : 1.51 GiB\r\nDuration : 1h 34mn\r\nOverall bit rate mode : Variable\r\nOverall bit rate : 2 300 Kbps\r\n\r\nVideo\r\nID : 1\r\nFormat : AVC\r\nFormat/Info : Advanced Video Codec\r\nFormat profile :   \r\nFormat settings, CABAC : Yes\r\nFormat settings, ReFrames : 1 frame\r\nFormat settings, GOP : M=1, N=24\r\nCodec ID : avc1\r\nCodec ID/Info : Advanced Video Coding\r\nDuration : 1h 34mn\r\nBit rate : 2 152 Kbps\r\nWidth : 852 pixels\r\nHeight : 480 pixels\r\nDisplay aspect ratio : 16:9\r\nFrame rate mode : Constant\r\nFrame rate : 29.970 fps\r\nColor space : YUV\r\nChroma subsampling : 4:2:0\r\nBit depth : 8 bits\r\nScan type : Progressive\r\nBits/(Pixel*Frame) : 0.176\r\nStream size : 1.42 GiB (94%)\r\nWriting library : x264 core 142\r\n\r\nAudio\r\nID : 2\r\nFormat : AAC\r\nFormat/Info : Advanced Audio Codec\r\nFormat profile : LC\r\nCodec ID : 40\r\nDuration : 1h 34mn\r\nBit rate mode : Variable\r\nBit rate : 128 Kbps\r\nMaximum bit rate : 133 Kbps\r\nChannel(s) : 2 channels\r\nChannel positions : Front: L R\r\nSampling rate : 48.0 KHz\r\nCompression mode : Lossy\r\nStream size : 86.1 MiB (6%)","torrent":{"xt":"urn:btih:f62209302377846d6409871c1d1b455cb8c869e4","amp;dn":"Yo-kai+Watch+the+Movie+2+The+Great+King+Enma+and+the+Five+Tales","amp;tr":["udp%3A%2F%2Ftracker.leechers-paradise.org%3A6969","udp%3A%2F%2Fzer0day.ch%3A1337","udp%3A%2F%2Fopen.demonii.com%3A1337","udp%3A%2F%2Ftracker.coppersurfer.tk%3A6969","udp%3A%2F%2Fexodus.desync.com%3A6969"],"infoHash":"f62209302377846d6409871c1d1b455cb8c869e4","infoHashBuffer":{"type":"Buffer","data":[246,34,9,48,35,119,132,109,100,9,135,28,29,27,69,92,184,200,105,228]},"announce":[],"urlList":[]}}